<svg width="40" height="40" viewBox="0 0 40 40" fill="none" xmlns="http://www.w3.org/2000/svg">
<path d="M19.8335 11C18.0535 11 16.3134 11.5278 14.8334 12.5168C13.3533 13.5057 12.1998 14.9113 11.5186 16.5558C10.8374 18.2004 10.6592 20.01 11.0064 21.7558C11.3537 23.5016 12.2109 25.1053 13.4695 26.364C14.7282 27.6226 16.3319 28.4798 18.0777 28.8271C19.8235 29.1743 21.6331 28.9961 23.2776 28.3149C24.9222 27.6337 26.3278 26.4802 27.3167 25.0001C28.3057 23.5201 28.8335 21.78 28.8335 20C28.831 17.6138 27.882 15.3261 26.1947 13.6388C24.5074 11.9515 22.2197 11.0025 19.8335 11ZM19.8335 26C18.6468 26 17.4868 25.6481 16.5001 24.9888C15.5134 24.3295 14.7443 23.3925 14.2902 22.2961C13.8361 21.1997 13.7173 19.9933 13.9488 18.8295C14.1803 17.6656 14.7517 16.5965 15.5909 15.7574C16.43 14.9182 17.4991 14.3468 18.663 14.1153C19.8268 13.8838 21.0332 14.0026 22.1296 14.4567C23.226 14.9108 24.163 15.6799 24.8223 16.6666C25.4816 17.6533 25.8335 18.8133 25.8335 20C25.8335 21.5913 25.2014 23.1174 24.0761 24.2426C22.9509 25.3679 21.4248 26 19.8335 26ZM28.8335 0.5H10.8335C8.04964 0.502978 5.38065 1.61018 3.41216 3.57867C1.44368 5.54715 0.336474 8.21614 0.333496 11V29C0.336474 31.7839 1.44368 34.4528 3.41216 36.4213C5.38065 38.3898 8.04964 39.497 10.8335 39.5H28.8335C31.6174 39.497 34.2863 38.3898 36.2548 36.4213C38.2233 34.4528 39.3305 31.7839 39.3335 29V11C39.3305 8.21614 38.2233 5.54715 36.2548 3.57867C34.2863 1.61018 31.6174 0.502978 28.8335 0.5ZM36.3335 29C36.3335 30.9891 35.5433 32.8968 34.1368 34.3033C32.7303 35.7098 30.8226 36.5 28.8335 36.5H10.8335C8.84437 36.5 6.93672 35.7098 5.5302 34.3033C4.12367 32.8968 3.3335 30.9891 3.3335 29V11C3.3335 9.01088 4.12367 7.10322 5.5302 5.6967C6.93672 4.29018 8.84437 3.5 10.8335 3.5H28.8335C30.8226 3.5 32.7303 4.29018 34.1368 5.6967C35.5433 7.10322 36.3335 9.01088 36.3335 11V29ZM31.8335 10.25C31.8335 10.695 31.7015 11.13 31.4543 11.5C31.2071 11.87 30.8557 12.1584 30.4445 12.3287C30.0334 12.499 29.581 12.5436 29.1445 12.4568C28.7081 12.37 28.3072 12.1557 27.9925 11.841C27.6778 11.5263 27.4635 11.1254 27.3767 10.689C27.2899 10.2525 27.3345 9.8001 27.5048 9.38896C27.6751 8.97783 27.9635 8.62643 28.3335 8.37919C28.7035 8.13196 29.1385 8 29.5835 8C30.1802 8 30.7525 8.23705 31.1745 8.65901C31.5964 9.08097 31.8335 9.65326 31.8335 10.25Z" fill="#E6AE06"/>
</svg>
