<svg width="22" height="21" viewBox="0 0 22 21" fill="none" xmlns="http://www.w3.org/2000/svg">
<path d="M9.66861 1.09791C10.0886 -0.191491 11.9128 -0.191491 12.3314 1.09791L13.8294 5.70671C13.9209 5.98739 14.0988 6.23196 14.3377 6.40546C14.5766 6.57895 14.8642 6.67249 15.1594 6.67271H20.0062C21.3628 6.67271 21.9256 8.40871 20.8294 9.20671L16.9094 12.0543C16.6701 12.228 16.4918 12.4729 16.4003 12.7541C16.3087 13.0353 16.3086 13.3382 16.3998 13.6195L17.8978 18.2283C18.3178 19.5177 16.8408 20.5915 15.7418 19.7935L11.8218 16.9459C11.5827 16.7723 11.2948 16.6788 10.9993 16.6788C10.7038 16.6788 10.4159 16.7723 10.1768 16.9459L6.25681 19.7935C5.15921 20.5915 3.68361 19.5177 4.10221 18.2283L5.60021 13.6195C5.69146 13.3382 5.69129 13.0353 5.59975 12.7541C5.5082 12.4729 5.32997 12.228 5.09061 12.0543L1.17201 9.20811C0.0758126 8.41011 0.640013 6.67411 1.99521 6.67411H6.84061C7.13608 6.67419 7.424 6.58078 7.66315 6.40727C7.9023 6.23375 8.08042 5.98902 8.17201 5.70811L9.67001 1.09931L9.66861 1.09791Z" fill="#FDA712"/>
</svg>
