<svg width="39" height="41" viewBox="0 0 39 41" fill="none" xmlns="http://www.w3.org/2000/svg">
<path d="M37.5 10.5C35.1138 10.4975 32.8261 9.54851 31.1388 7.86122C29.4515 6.17393 28.5025 3.88619 28.5 1.5C28.5 1.10218 28.342 0.720644 28.0607 0.43934C27.7794 0.158035 27.3978 0 27 0H19.5C19.1022 0 18.7206 0.158035 18.4393 0.43934C18.158 0.720644 18 1.10218 18 1.5V26.25C17.9997 26.921 17.8193 27.5797 17.4777 28.1573C17.1361 28.7348 16.6458 29.2102 16.0579 29.5337C15.47 29.8572 14.8061 30.017 14.1354 29.9965C13.4646 29.976 12.8117 29.7759 12.2447 29.4171C11.6777 29.0582 11.2173 28.5538 10.9116 27.9565C10.606 27.3591 10.4662 26.6906 10.5069 26.0208C10.5476 25.351 10.7673 24.7044 11.143 24.1485C11.5188 23.5925 12.0368 23.1475 12.6431 22.86C12.8996 22.7383 13.1163 22.5463 13.2679 22.3063C13.4196 22.0663 13.5001 21.7883 13.5 21.5044V13.5C13.5001 13.2807 13.4521 13.0641 13.3594 12.8654C13.2668 12.6667 13.1317 12.4907 12.9636 12.3498C12.7956 12.209 12.5987 12.1067 12.3869 12.0501C12.175 11.9936 11.9534 11.9841 11.7375 12.0225C5.04562 13.215 0 19.3312 0 26.25C0 30.0293 1.50133 33.6539 4.17373 36.3263C6.84612 38.9987 10.4707 40.5 14.25 40.5C18.0293 40.5 21.6539 38.9987 24.3263 36.3263C26.9987 33.6539 28.5 30.0293 28.5 26.25V18.8044C31.2781 20.2538 34.3665 21.0073 37.5 21C37.8978 21 38.2794 20.842 38.5607 20.5607C38.842 20.2794 39 19.8978 39 19.5V12C39 11.6022 38.842 11.2206 38.5607 10.9393C38.2794 10.658 37.8978 10.5 37.5 10.5ZM36 17.9325C33.0687 17.6727 30.2618 16.6266 27.8756 14.9044C27.6513 14.7431 27.3869 14.6469 27.1114 14.6264C26.836 14.6059 26.5602 14.6618 26.3145 14.7881C26.0688 14.9143 25.8627 15.106 25.719 15.3419C25.5753 15.5778 25.4995 15.8488 25.5 16.125V26.25C25.5 29.2337 24.3147 32.0952 22.205 34.205C20.0952 36.3147 17.2337 37.5 14.25 37.5C11.2663 37.5 8.40483 36.3147 6.29505 34.205C4.18526 32.0952 3 29.2337 3 26.25C3 21.3938 6.12 17.0381 10.5 15.45V20.6381C9.53034 21.286 8.74508 22.1741 8.22075 23.2157C7.69642 24.2574 7.4509 25.4171 7.50813 26.5819C7.56537 27.7467 7.92339 28.8767 8.54732 29.862C9.17125 30.8472 10.0398 31.654 11.0683 32.2037C12.0968 32.7534 13.2502 33.0272 14.416 32.9986C15.5818 32.9699 16.7203 32.6397 17.7206 32.0401C18.7208 31.4405 19.5486 30.5919 20.1233 29.5772C20.6981 28.5625 21.0001 27.4162 21 26.25V3H25.5938C25.9311 5.64203 27.1359 8.09733 29.0193 9.98069C30.9027 11.8641 33.358 13.0689 36 13.4062V17.9325Z" fill="#E6AE06"/>
</svg>
