<svg width="57" height="48" viewBox="0 0 57 48" fill="none" xmlns="http://www.w3.org/2000/svg">
<path d="M45.1313 0.506836H11.2027C5.02562 0.506836 0.000488281 6.23019 0.000488281 13.264V34.736C0.000488281 41.7711 5.02562 47.4932 11.2027 47.4932H45.1313C51.3084 47.4932 56.3335 41.7698 56.3335 34.736V13.264C56.3335 6.23019 51.3084 0.506836 45.1313 0.506836ZM54.0342 34.7373C54.0342 40.3328 50.0403 44.884 45.1313 44.884H11.2027C6.29369 44.884 2.29979 40.3315 2.29979 34.7373V13.264C2.29979 7.66984 6.29369 3.11726 11.2027 3.11726H45.1313C50.0403 3.11726 54.0342 7.66984 54.0342 13.264V34.7373Z" fill="#E6AE06"/>
<path d="M38.3525 23.5281L22.4241 12.9363C22.07 12.7014 21.6297 12.6975 21.2721 12.9298C20.9146 13.1621 20.6938 13.5941 20.6938 14.0627V35.245C20.6938 35.7123 20.9146 36.1456 21.271 36.3779C21.448 36.4928 21.6458 36.5502 21.8435 36.5502C22.0447 36.5502 22.2447 36.4902 22.4241 36.3714L38.3525 25.7822C38.7043 25.5486 38.9216 25.1192 38.9216 24.6558C38.9216 24.1925 38.7055 23.7618 38.3525 23.5281ZM22.9932 32.9674V16.339L35.4968 24.6545L22.9932 32.9674Z" fill="#E6AE06"/>
</svg>
